<svg id="Layer_1" data-name="Layer 1" xmlns="http://www.w3.org/2000/svg" viewBox="0 0 1144.63 791.99"><defs><style>.cls-1{fill:#473421;}.cls-1,.cls-12{stroke:#fff;stroke-miterlimit:10;}.cls-2{font-size:57px;font-family:Montserrat-ExtraBold, Montserrat ExtraBold;}.cls-13,.cls-2{fill:#fff;}.cls-3{letter-spacing:-0.03em;}.cls-4{letter-spacing:-0.01em;}.cls-5{letter-spacing:0.02em;}.cls-6{letter-spacing:-0.01em;}.cls-7{letter-spacing:-0.02em;}.cls-8{letter-spacing:-0.02em;}.cls-9{letter-spacing:-0.01em;}.cls-10{letter-spacing:-0.01em;}.cls-11{letter-spacing:-0.02em;}.cls-12{fill:none;stroke-width:3px;}</style></defs><title>header-sheme</title><rect class="cls-1" width="1144.63" height="791.99"/><text class="cls-2" transform="translate(244.49 274.1)"><tspan class="cls-3">К</tspan><tspan class="cls-4" x="41.04" y="0">о</tspan><tspan x="78.2" y="0">д</tspan><tspan class="cls-5" x="119.41" y="0">.</tspan><tspan x="136.68" y="0">док — </tspan><tspan x="0" y="68.4">новая площад</tspan><tspan class="cls-6" x="449.38" y="68.4">к</tspan><tspan x="486.83" y="68.4">а</tspan><tspan x="0" y="136.8">для до</tspan><tspan class="cls-3" x="211.87" y="136.8">к</tspan><tspan x="248.17" y="136.8">ументально</tspan><tspan class="cls-7" x="627.28" y="136.8">г</tspan><tspan x="656.18" y="136.8">о</tspan><tspan class="cls-8" x="0" y="205.2">т</tspan><tspan class="cls-9" x="30.61" y="205.2">е</tspan><tspan x="66.75" y="205.2">ат</tspan><tspan class="cls-10" x="133.44" y="205.2">р</tspan><tspan x="172.54" y="205.2">а, кино</tspan><tspan x="0" y="273.6">и ф</tspan><tspan class="cls-11" x="107.39" y="273.6">о</tspan><tspan class="cls-8" x="143.98" y="273.6">т</tspan><tspan x="174.59" y="273.6">ог</tspan><tspan class="cls-10" x="242.42" y="273.6">р</tspan><tspan x="281.52" y="273.6">афии</tspan></text><line class="cls-12" y1="667.59" x2="823.46" y2="667.59"/><circle class="cls-12" cx="844.08" cy="667.59" r="22.16"/><line class="cls-12" x1="1144.63" y1="124.4" x2="305.27" y2="124.4"/><circle class="cls-12" cx="284.65" cy="124.4" r="22.16"/><line class="cls-12" x1="1032.11" y1="791.99" x2="1032.11" y2="240.45"/><circle class="cls-12" cx="1032.11" cy="219.83" r="22.16"/><circle class="cls-13" cx="958.45" cy="717.3" r="6.87"/><circle class="cls-13" cx="1009.95" cy="308.64" r="6.87"/><circle class="cls-13" cx="184.99" cy="71.69" r="6.87"/><circle class="cls-13" cx="149.65" cy="477.69" r="6.87"/><line class="cls-12" x1="127.49" x2="127.49" y2="565.07"/><circle class="cls-12" cx="127.49" cy="585.7" r="22.16"/><line class="cls-12" y1="717.3" x2="958.45" y2="717.3"/><line class="cls-12" x1="184.99" y1="71.69" x2="1143.44" y2="71.69"/><line class="cls-12" x1="1009.95" y1="312.76" x2="1009.95" y2="791.99"/><line class="cls-12" x1="149.65" y1="0.84" x2="149.65" y2="480.06"/></svg>