<svg id="Layer_1" data-name="Layer 1" xmlns="http://www.w3.org/2000/svg" xmlns:xlink="http://www.w3.org/1999/xlink" viewBox="0 0 1328 791.99"><defs><style>.cls-1,.cls-3{fill:none;}.cls-2{clip-path:url(#clip-path);}.cls-3,.cls-5{stroke:#000;stroke-miterlimit:10;}.cls-4,.cls-5{fill:#fff;}</style><clipPath id="clip-path"><polygon class="cls-1" points="695.73 758.73 195.7 464.33 348 -94.01 761.06 -215.17 1183.89 326.2 695.73 758.73"/></clipPath></defs><title>UROaEKtPenU</title><g class="cls-2"><rect class="cls-3" x="689.83" y="-194.64" width="712.39" height="1153.01" transform="translate(2092.05 763.72) rotate(180)"/><line class="cls-3" x1="1402.22" x2="689.83"/><line class="cls-3" x1="1402.22" y1="26.26" x2="689.83" y2="26.26"/><line class="cls-3" x1="1402.22" y1="53.71" x2="689.83" y2="53.71"/><line class="cls-3" x1="1402.22" y1="81.17" x2="689.83" y2="81.17"/><line class="cls-3" x1="1402.22" y1="108.62" x2="689.83" y2="108.62"/><line class="cls-3" x1="1402.22" y1="136.08" x2="689.83" y2="136.08"/><line class="cls-3" x1="1402.22" y1="163.53" x2="689.83" y2="163.53"/><line class="cls-3" x1="1402.22" y1="190.98" x2="689.83" y2="190.98"/><line class="cls-3" x1="1402.22" y1="218.44" x2="689.83" y2="218.44"/><line class="cls-3" x1="1402.22" y1="245.89" x2="689.83" y2="245.89"/><line class="cls-3" x1="1402.22" y1="273.35" x2="689.83" y2="273.35"/><line class="cls-3" x1="1402.22" y1="300.8" x2="689.83" y2="300.8"/><line class="cls-3" x1="1402.22" y1="328.25" x2="689.83" y2="328.25"/><line class="cls-3" x1="1402.22" y1="355.71" x2="689.83" y2="355.71"/><line class="cls-3" x1="1402.22" y1="383.16" x2="689.83" y2="383.16"/><line class="cls-3" x1="1402.22" y1="410.62" x2="689.83" y2="410.62"/><line class="cls-3" x1="1402.22" y1="436.88" x2="689.83" y2="436.88"/><line class="cls-3" x1="1402.22" y1="464.33" x2="689.83" y2="464.33"/><line class="cls-3" x1="1402.22" y1="491.79" x2="689.83" y2="491.79"/><line class="cls-3" x1="1402.22" y1="519.24" x2="689.83" y2="519.24"/><line class="cls-3" x1="1402.22" y1="546.69" x2="689.83" y2="546.69"/><line class="cls-3" x1="1402.22" y1="574.15" x2="689.83" y2="574.15"/><line class="cls-3" x1="1402.22" y1="601.6" x2="689.83" y2="601.6"/><line class="cls-3" x1="1402.22" y1="629.06" x2="689.83" y2="629.06"/><line class="cls-3" x1="1402.22" y1="656.51" x2="689.83" y2="656.51"/><line class="cls-3" x1="1402.22" y1="683.96" x2="689.83" y2="683.96"/><line class="cls-3" x1="1402.22" y1="711.42" x2="689.83" y2="711.42"/><line class="cls-3" x1="1402.22" y1="738.87" x2="689.83" y2="738.87"/><line class="cls-3" x1="1402.22" y1="766.33" x2="689.83" y2="766.33"/><line class="cls-3" x1="718.37" y1="-194.64" x2="718.37" y2="957.79"/><line class="cls-3" x1="745.82" y1="-194.64" x2="745.82" y2="957.79"/><line class="cls-3" x1="773.28" y1="-194.64" x2="773.28" y2="957.79"/><line class="cls-3" x1="800.73" y1="-194.64" x2="800.73" y2="957.79"/><line class="cls-3" x1="828.18" y1="-194.64" x2="828.18" y2="957.79"/><line class="cls-3" x1="855.64" y1="-194.64" x2="855.64" y2="957.79"/><line class="cls-3" x1="881.9" y1="-194.64" x2="881.9" y2="957.79"/><line class="cls-3" x1="909.35" y1="-194.64" x2="909.35" y2="957.79"/><line class="cls-3" x1="936.81" y1="-194.64" x2="936.81" y2="957.79"/><line class="cls-3" x1="964.26" y1="-194.64" x2="964.26" y2="957.79"/><line class="cls-3" x1="991.71" y1="-194.64" x2="991.71" y2="957.79"/><line class="cls-3" x1="1019.17" y1="-194.64" x2="1019.17" y2="957.79"/><line class="cls-3" x1="1046.62" y1="-194.64" x2="1046.62" y2="957.79"/><line class="cls-3" x1="1074.08" y1="-194.64" x2="1074.08" y2="957.79"/><line class="cls-3" x1="1101.53" y1="-194.64" x2="1101.53" y2="957.79"/><line class="cls-3" x1="1128.98" y1="-194.64" x2="1128.98" y2="957.79"/><line class="cls-3" x1="1156.44" y1="-194.64" x2="1156.44" y2="957.79"/><line class="cls-3" x1="1183.89" y1="-194.64" x2="1183.89" y2="957.79"/><line class="cls-3" x1="1211.35" y1="-194.64" x2="1211.35" y2="957.79"/><line class="cls-3" x1="1238.8" y1="-194.64" x2="1238.8" y2="957.79"/><line class="cls-3" x1="1266.25" y1="-194.64" x2="1266.25" y2="957.79"/><line class="cls-3" x1="1292.51" y1="-194.64" x2="1292.51" y2="957.79"/><line class="cls-3" x1="1319.97" y1="-194.64" x2="1319.97" y2="957.79"/><line class="cls-3" x1="1347.42" y1="724.55" x2="1319.97" y2="724.55"/><line class="cls-3" x1="1347.42" y1="697.69" x2="1319.97" y2="697.69"/><line class="cls-3" x1="1347.42" y1="670.24" x2="1319.97" y2="670.24"/><line class="cls-3" x1="1347.42" y1="642.78" x2="1319.97" y2="642.78"/><line class="cls-3" x1="1347.42" y1="615.33" x2="1319.97" y2="615.33"/><line class="cls-3" x1="1347.42" y1="587.87" x2="1319.97" y2="587.87"/><line class="cls-3" x1="1347.42" y1="560.42" x2="1319.97" y2="560.42"/><line class="cls-3" x1="1347.42" y1="532.97" x2="1319.97" y2="532.97"/><line class="cls-3" x1="1347.42" y1="505.51" x2="1319.97" y2="505.51"/><line class="cls-3" x1="1347.42" y1="478.06" x2="1319.97" y2="478.06"/><line class="cls-3" x1="1347.42" y1="450.6" x2="1319.97" y2="450.6"/><line class="cls-3" x1="1347.42" y1="423.75" x2="1319.97" y2="423.75"/><line class="cls-3" x1="1347.42" y1="396.89" x2="1319.97" y2="396.89"/><line class="cls-3" x1="1347.42" y1="369.44" x2="1319.97" y2="369.44"/><line class="cls-3" x1="1347.42" y1="341.98" x2="1319.97" y2="341.98"/><line class="cls-3" x1="1347.42" y1="314.53" x2="1319.97" y2="314.53"/><line class="cls-3" x1="1347.42" y1="287.07" x2="1319.97" y2="287.07"/><line class="cls-3" x1="1347.42" y1="259.62" x2="1319.97" y2="259.62"/><line class="cls-3" x1="1347.42" y1="232.17" x2="1319.97" y2="232.17"/><line class="cls-3" x1="1347.42" y1="204.71" x2="1319.97" y2="204.71"/><line class="cls-3" x1="1347.42" y1="177.26" x2="1319.97" y2="177.26"/><line class="cls-3" x1="1347.42" y1="149.8" x2="1319.97" y2="149.8"/><line class="cls-3" x1="1347.42" y1="122.35" x2="1319.97" y2="122.35"/><line class="cls-3" x1="1347.42" y1="108.62" x2="1319.97" y2="108.62"/><line class="cls-3" x1="1347.42" y1="94.9" x2="1319.97" y2="94.9"/><line class="cls-3" x1="1347.42" y1="81.17" x2="1319.97" y2="81.17"/><line class="cls-3" x1="1347.42" y1="67.44" x2="1319.97" y2="67.44"/><line class="cls-3" x1="1347.42" y1="53.71" x2="1319.97" y2="53.71"/><line class="cls-3" x1="1347.42" y1="39.99" x2="1319.97" y2="39.99"/><line class="cls-3" x1="1347.42" y1="491.79" x2="1319.97" y2="491.79"/><circle class="cls-3" cx="1046.62" cy="383.16" r="6.56"/><circle class="cls-3" cx="718.37" cy="711.42" r="6.56"/><rect class="cls-3" x="-22.55" y="-194.64" width="712.39" height="1153.01"/><line class="cls-3" x1="-22.63" y1="766.41" x2="689.76" y2="766.41"/><line class="cls-3" x1="-22.63" y1="738.88" x2="689.76" y2="738.88"/><line class="cls-3" x1="-22.63" y1="711.43" x2="689.76" y2="711.43"/><line class="cls-3" x1="-22.63" y1="683.97" x2="689.76" y2="683.97"/><line class="cls-3" x1="-22.63" y1="656.52" x2="689.76" y2="656.52"/><line class="cls-3" x1="-22.63" y1="629.06" x2="689.76" y2="629.06"/><line class="cls-3" x1="-22.63" y1="601.61" x2="689.76" y2="601.61"/><line class="cls-3" x1="-22.63" y1="574.15" x2="689.76" y2="574.15"/><line class="cls-3" x1="-22.63" y1="546.7" x2="689.76" y2="546.7"/><line class="cls-3" x1="-22.63" y1="519.25" x2="689.76" y2="519.25"/><line class="cls-3" x1="-22.63" y1="491.79" x2="689.76" y2="491.79"/><line class="cls-3" x1="-22.63" y1="464.34" x2="689.76" y2="464.34"/><line class="cls-3" x1="-22.63" y1="436.88" x2="689.76" y2="436.88"/><line class="cls-3" x1="-22.63" y1="410.7" x2="689.76" y2="410.7"/><line class="cls-3" x1="-22.63" y1="383.25" x2="689.76" y2="383.25"/><line class="cls-3" x1="-22.63" y1="355.8" x2="689.76" y2="355.8"/><line class="cls-3" x1="-22.63" y1="328.26" x2="689.76" y2="328.26"/><line class="cls-3" x1="-22.63" y1="300.81" x2="689.76" y2="300.81"/><line class="cls-3" x1="-22.63" y1="273.35" x2="689.76" y2="273.35"/><line class="cls-3" x1="-22.63" y1="245.9" x2="689.76" y2="245.9"/><line class="cls-3" x1="-22.63" y1="218.45" x2="689.76" y2="218.45"/><line class="cls-3" x1="-22.63" y1="190.99" x2="689.76" y2="190.99"/><line class="cls-3" x1="-22.63" y1="163.54" x2="689.76" y2="163.54"/><line class="cls-3" x1="-22.63" y1="136.08" x2="689.76" y2="136.08"/><line class="cls-3" x1="-22.63" y1="108.63" x2="689.76" y2="108.63"/><line class="cls-3" x1="-22.63" y1="81.18" x2="689.76" y2="81.18"/><line class="cls-3" x1="-22.63" y1="53.72" x2="689.76" y2="53.72"/><line class="cls-3" x1="-22.63" y1="26.27" x2="689.76" y2="26.27"/><line class="cls-3" x1="-22.63" x2="689.76"/><line class="cls-3" x1="661.22" y1="958.59" x2="661.22" y2="-194.31"/><line class="cls-3" x1="633.77" y1="958.59" x2="633.77" y2="-194.31"/><line class="cls-3" x1="606.31" y1="958.59" x2="606.31" y2="-194.64"/><line class="cls-3" x1="578.86" y1="958.59" x2="578.86" y2="-194.64"/><line class="cls-3" x1="551.41" y1="958.59" x2="551.41" y2="-194.64"/><line class="cls-3" x1="523.95" y1="958.59" x2="523.95" y2="-194.64"/><line class="cls-3" x1="497.69" y1="958.59" x2="497.69" y2="-194.64"/><line class="cls-3" x1="470.24" y1="958.59" x2="470.24" y2="-194.64"/><line class="cls-3" x1="442.78" y1="958.59" x2="442.78" y2="-194.64"/><line class="cls-3" x1="415.33" y1="958.59" x2="415.33" y2="-194.64"/><line class="cls-3" x1="387.88" y1="958.59" x2="387.88" y2="-194.09"/><line class="cls-3" x1="360.42" y1="958.59" x2="360.42" y2="-194.09"/><line class="cls-3" x1="332.97" y1="958.59" x2="332.97" y2="-194.09"/><line class="cls-3" x1="305.51" y1="958.59" x2="305.51" y2="-194.09"/><line class="cls-3" x1="278.06" y1="958.59" x2="278.06" y2="-194.09"/><line class="cls-3" x1="250.61" y1="958.59" x2="250.61" y2="-194.64"/><line class="cls-3" x1="223.15" y1="958.59" x2="223.15" y2="-194.09"/><line class="cls-3" x1="195.7" y1="958.59" x2="195.7" y2="-194.64"/><line class="cls-3" x1="168.24" y1="958.59" x2="168.24" y2="-194.64"/><line class="cls-3" x1="140.79" y1="958.59" x2="140.79" y2="-194.64"/><line class="cls-3" x1="113.34" y1="958.59" x2="113.34" y2="-194"/><line class="cls-3" x1="87.08" y1="958.59" x2="87.08" y2="-194"/><line class="cls-3" x1="59.62" y1="958.59" x2="59.62" y2="-194.64"/><line class="cls-3" x1="32.17" y1="958.59" x2="32.17" y2="-194"/><line class="cls-3" x1="4.71" y1="958.59" x2="4.71" y2="-194.64"/><line class="cls-3" x1="45.49" y1="26.27" x2="45.49" y2="738.88"/><line class="cls-3" x1="32.17" y1="40.59" x2="59.62" y2="40.59"/><line class="cls-3" x1="32.17" y1="67.45" x2="59.62" y2="67.45"/><line class="cls-3" x1="32.17" y1="94.9" x2="59.62" y2="94.9"/><line class="cls-3" x1="32.17" y1="122.36" x2="59.62" y2="122.36"/><line class="cls-3" x1="32.17" y1="149.81" x2="59.62" y2="149.81"/><line class="cls-3" x1="32.17" y1="177.27" x2="59.62" y2="177.27"/><line class="cls-3" x1="32.17" y1="204.72" x2="59.62" y2="204.72"/><line class="cls-3" x1="32.17" y1="232.17" x2="59.62" y2="232.17"/><line class="cls-3" x1="32.17" y1="259.63" x2="59.62" y2="259.63"/><line class="cls-3" x1="32.17" y1="287.08" x2="59.62" y2="287.08"/><line class="cls-3" x1="32.17" y1="314.54" x2="59.62" y2="314.54"/><line class="cls-3" x1="32.17" y1="341.39" x2="59.62" y2="341.39"/><line class="cls-3" x1="32.17" y1="368.25" x2="59.62" y2="368.25"/><line class="cls-3" x1="32.17" y1="395.7" x2="59.62" y2="395.7"/><line class="cls-3" x1="32.17" y1="423.16" x2="59.62" y2="423.16"/><line class="cls-3" x1="32.17" y1="450.61" x2="59.62" y2="450.61"/><line class="cls-3" x1="32.17" y1="478.07" x2="59.62" y2="478.07"/><line class="cls-3" x1="32.17" y1="505.52" x2="59.62" y2="505.52"/><line class="cls-3" x1="32.17" y1="532.97" x2="59.62" y2="532.97"/><line class="cls-3" x1="32.17" y1="560.43" x2="59.62" y2="560.43"/><line class="cls-3" x1="32.17" y1="587.88" x2="59.62" y2="587.88"/><line class="cls-3" x1="32.17" y1="615.34" x2="59.62" y2="615.34"/><line class="cls-3" x1="32.17" y1="642.79" x2="59.62" y2="642.79"/><line class="cls-3" x1="32.17" y1="656.52" x2="59.62" y2="656.52"/><line class="cls-3" x1="32.17" y1="670.24" x2="59.62" y2="670.24"/><line class="cls-3" x1="32.17" y1="683.97" x2="59.62" y2="683.97"/><line class="cls-3" x1="32.17" y1="697.7" x2="59.62" y2="697.7"/><line class="cls-3" x1="32.17" y1="711.43" x2="59.62" y2="711.43"/><line class="cls-3" x1="32.17" y1="725.15" x2="59.62" y2="725.15"/><line class="cls-3" x1="32.17" y1="273.35" x2="59.62" y2="273.35"/><circle class="cls-3" cx="661.22" cy="711.43" r="6.56"/><circle class="cls-3" cx="4.71" cy="711.43" r="6.56"/><circle class="cls-3" cx="332.97" cy="383.25" r="6.56"/><circle class="cls-3" cx="4.71" cy="53.72" r="6.56"/><circle class="cls-3" cx="689.76" cy="53.72" r="6.56"/><line class="cls-3" x1="-1.85" y1="375.41" x2="11.28" y2="388.74"/><line class="cls-3" x1="-1.75" y1="388.74" x2="11.18" y2="375.21"/><rect class="cls-3" x="-54.89" y="-229.34" width="1490.87" height="1218.36"/><line class="cls-3" x1="360.42" y1="108.62" x2="360.42" y2="546.69"/><line class="cls-3" x1="353.86" y1="47.55" x2="366.99" y2="60.88"/><line class="cls-3" x1="353.96" y1="61.08" x2="366.89" y2="47.55"/><rect class="cls-4" x="360.92" y="136.58" width="328.41" height="53.91"/><rect class="cls-4" x="360.94" y="218.93" width="494.19" height="53.93"/><rect class="cls-4" x="360.94" y="301.33" width="657.73" height="53.98"/><rect class="cls-4" x="360.92" y="464.84" width="439.31" height="53.89"/><rect class="cls-4" x="360.92" y="383.66" width="411.87" height="52.73"/><path d="M399,158.34l10.35,18H396l-6.7-12.65H386v12.65h-11.8v-35H386v13h3.6l7.45-13h12.3Z"/><path d="M416.77,175a14,14,0,0,1-5.68-5,14.11,14.11,0,0,1,0-14.65,13.87,13.87,0,0,1,5.68-5,19.58,19.58,0,0,1,16.4,0,13.7,13.7,0,0,1,5.65,5,14.26,14.26,0,0,1,0,14.65,13.86,13.86,0,0,1-5.65,5,19.33,19.33,0,0,1-16.4,0Zm11.38-8.4a5.83,5.83,0,0,0,1.25-4,5.74,5.74,0,0,0-1.25-4,4.36,4.36,0,0,0-6.4,0,5.73,5.73,0,0,0-1.25,4,5.83,5.83,0,0,0,1.25,4,4.31,4.31,0,0,0,6.4,0Z"/><path d="M477.75,167.49v14.25H467.3v-5.4H452.2v5.4H441.75V167.49h.8a3.38,3.38,0,0,0,3.35-2.28,19.56,19.56,0,0,0,1.1-6.58l.35-9.65H474.1v18.5Zm-21-3a6.68,6.68,0,0,1-1.27,3h7.4v-9.7H457.2l-.05,1.7A36.51,36.51,0,0,1,456.72,164.46Z"/><path d="M481.27,175a6.24,6.24,0,0,1-1.87-4.67,6.08,6.08,0,0,1,1.88-4.62,7.18,7.18,0,0,1,9.45,0,6.08,6.08,0,0,1,1.88,4.63,6.24,6.24,0,0,1-1.87,4.67,7,7,0,0,1-9.45,0Z"/><path d="M531.25,167.49v14.25H520.8v-5.4H505.7v5.4H495.25V167.49h.8a3.38,3.38,0,0,0,3.35-2.28,19.56,19.56,0,0,0,1.1-6.58l.35-9.65H527.6v18.5Zm-21-3a6.68,6.68,0,0,1-1.27,3h7.4v-9.7H510.7l-.05,1.7A36.51,36.51,0,0,1,510.22,164.46Z"/><path d="M540.47,175a14,14,0,0,1-5.68-5,14.11,14.11,0,0,1,0-14.65,13.87,13.87,0,0,1,5.68-5,19.58,19.58,0,0,1,16.4,0,13.7,13.7,0,0,1,5.65,5,14.26,14.26,0,0,1,0,14.65,13.86,13.86,0,0,1-5.65,5,19.33,19.33,0,0,1-16.4,0Zm11.38-8.4a5.83,5.83,0,0,0,1.25-4,5.74,5.74,0,0,0-1.25-4,4.36,4.36,0,0,0-6.4,0,5.73,5.73,0,0,0-1.25,4,5.83,5.83,0,0,0,1.25,4,4.31,4.31,0,0,0,6.4,0Z"/><path d="M581.5,167.24h-2.15v9.1H568V149h11.3v9.6h2.45l6-9.6h11.9l-8.8,13.1,9.35,14.25h-13.3Z"/><path d="M615.09,158.64h50v6.5h-50Z"/><path d="M375.77,229.59H387v9.6h7.7v-9.6H406v27.35H394.72V248H387v8.9H375.77Z"/><path d="M417.19,255.61a14,14,0,0,1-5.68-5,14.11,14.11,0,0,1,0-14.65,13.87,13.87,0,0,1,5.68-5,19.58,19.58,0,0,1,16.4,0,13.7,13.7,0,0,1,5.65,5,14.26,14.26,0,0,1,0,14.65,13.86,13.86,0,0,1-5.65,5,19.33,19.33,0,0,1-16.4,0Zm11.38-8.4a5.83,5.83,0,0,0,1.25-4,5.74,5.74,0,0,0-1.25-4,4.36,4.36,0,0,0-6.4,0,5.73,5.73,0,0,0-1.25,4,5.83,5.83,0,0,0,1.25,4,4.31,4.31,0,0,0,6.4,0Z"/><path d="M472.52,248.94a6.84,6.84,0,0,1-2.95,5.88q-3,2.13-8.65,2.13H444.77V229.59h15.35q5.5,0,8.55,1.88a5.88,5.88,0,0,1,3.05,5.27,6.22,6.22,0,0,1-1,3.4,7.06,7.06,0,0,1-2.75,2.45A6.3,6.3,0,0,1,472.52,248.94Zm-17.85-8.55h4.45q2.45,0,2.45-2A1.67,1.67,0,0,0,461,237a3.07,3.07,0,0,0-1.87-.45h-4.45Zm7.7,7.5q0-1.95-2.45-2h-5.25v4h5.25Q462.37,249.94,462.37,247.89Z"/><path d="M498.87,232.31q3.8,3.23,3.8,9.92v14.7h-10.5v-3.6q-2,4.1-7.75,4.1a12.36,12.36,0,0,1-5.52-1.12,7.92,7.92,0,0,1-4.62-7.37,7,7,0,0,1,3.1-6.15q3.1-2.1,9.4-2.1h4.55q-.55-3.2-5.15-3.2a12.91,12.91,0,0,0-3.75.58,10.54,10.54,0,0,0-3.25,1.58l-3.6-7.45a19.89,19.89,0,0,1,5.67-2.28,27.44,27.44,0,0,1,6.63-.82Q495.07,229.09,498.87,232.31ZM490,250a3.76,3.76,0,0,0,1.4-2v-1.9h-2.8q-3.45,0-3.45,2.3a2,2,0,0,0,.73,1.58,2.92,2.92,0,0,0,2,.63A3.72,3.72,0,0,0,490,250Z"/><path d="M534.37,229.59v27.35h-10v-7h-2.75l-4.45,7H505.22l5.9-8.55a9.55,9.55,0,0,1-4-3.35,8.73,8.73,0,0,1-1.37-4.9,9.09,9.09,0,0,1,3.8-7.75q3.8-2.8,10.4-2.8Zm-17,10.95a2.19,2.19,0,0,0,.72,1.83,3.45,3.45,0,0,0,2.18.58h4.15v-4.6h-4.15Q517.31,238.34,517.32,240.54Z"/><path d="M584,229.59v27.35H572.76V238.39h-6.85v18.55H554.66V229.59Z"/><path d="M618.81,229.59v27.35h-11.3V238.39h-5.15l-.15,3.55a40.93,40.93,0,0,1-1.1,8.7,10.22,10.22,0,0,1-3,5.22,8.29,8.29,0,0,1-5.68,1.83,22,22,0,0,1-5.25-.75l.45-9.15a10.41,10.41,0,0,0,1.15.1,2.64,2.64,0,0,0,2.7-1.48,15,15,0,0,0,.8-4.92l.4-11.9Z"/><path d="M630,255.61a14,14,0,0,1-5.68-5,14.11,14.11,0,0,1,0-14.65,13.87,13.87,0,0,1,5.68-5,19.58,19.58,0,0,1,16.4,0,13.7,13.7,0,0,1,5.65,5,14.26,14.26,0,0,1,0,14.65,13.86,13.86,0,0,1-5.65,5,19.33,19.33,0,0,1-16.4,0Zm11.38-8.4a5.83,5.83,0,0,0,1.25-4,5.74,5.74,0,0,0-1.25-4,4.36,4.36,0,0,0-6.4,0,5.73,5.73,0,0,0-1.25,4,5.83,5.83,0,0,0,1.25,4,4.31,4.31,0,0,0,6.4,0Z"/><path d="M702.56,229.59v27.35h-45V229.59h11.25v18.5h5.65v-18.5h11.25v18.5h5.6v-18.5Zm3.55,18.5V262H695.66v-5h-4.5v-8.85Z"/><path d="M730.51,232.31q3.8,3.23,3.8,9.92v14.7h-10.5v-3.6q-2,4.1-7.75,4.1a12.36,12.36,0,0,1-5.52-1.12,7.92,7.92,0,0,1-4.62-7.37,7,7,0,0,1,3.1-6.15q3.1-2.1,9.4-2.1H723q-.55-3.2-5.15-3.2a12.91,12.91,0,0,0-3.75.58,10.54,10.54,0,0,0-3.25,1.58l-3.6-7.45a19.89,19.89,0,0,1,5.67-2.28,27.44,27.44,0,0,1,6.63-.82Q726.71,229.09,730.51,232.31ZM721.61,250a3.76,3.76,0,0,0,1.4-2v-1.9h-2.8q-3.45,0-3.45,2.3a2,2,0,0,0,.73,1.58,2.92,2.92,0,0,0,2,.63A3.72,3.72,0,0,0,721.61,250Z"/><path d="M772.91,248.09v14.25H762.46v-5.4h-15.1v5.4H736.91V248.09h.8a3.38,3.38,0,0,0,3.35-2.28,19.56,19.56,0,0,0,1.1-6.58l.35-9.65h26.75v18.5Zm-21-3a6.68,6.68,0,0,1-1.27,3H758v-9.7h-5.65l-.05,1.7A36.51,36.51,0,0,1,751.89,245.06Z"/><path d="M789.66,247.84h-2.15v9.1h-11.3V229.59h11.3v9.6H790l6-9.6h11.9l-8.8,13.1,9.35,14.25h-13.3Z"/><path d="M833.06,232.31q3.8,3.23,3.8,9.92v14.7h-10.5v-3.6q-2,4.1-7.75,4.1a12.36,12.36,0,0,1-5.52-1.12,7.92,7.92,0,0,1-4.62-7.37,7,7,0,0,1,3.1-6.15q3.1-2.1,9.4-2.1h4.55q-.55-3.2-5.15-3.2a12.91,12.91,0,0,0-3.75.58,10.54,10.54,0,0,0-3.25,1.58l-3.6-7.45a19.89,19.89,0,0,1,5.67-2.28,27.44,27.44,0,0,1,6.63-.82Q829.26,229.09,833.06,232.31ZM824.16,250a3.76,3.76,0,0,0,1.4-2v-1.9h-2.8q-3.45,0-3.45,2.3A2,2,0,0,0,820,250a2.92,2.92,0,0,0,2,.63A3.72,3.72,0,0,0,824.16,250Z"/><path d="M411.77,331v14.25H401.32v-5.4h-15.1v5.4H375.77V331h.8a3.38,3.38,0,0,0,3.35-2.28,19.56,19.56,0,0,0,1.1-6.58l.35-9.65h26.75V331Zm-21-3a6.68,6.68,0,0,1-1.27,3h7.4v-9.7h-5.65l-.05,1.7A36.51,36.51,0,0,1,390.74,328Z"/><path d="M444.57,312.52v27.35h-11.3V321.32h-5.15l-.15,3.55a40.93,40.93,0,0,1-1.1,8.7,10.22,10.22,0,0,1-3,5.22,8.29,8.29,0,0,1-5.68,1.83,22,22,0,0,1-5.25-.75l.45-9.15a10.41,10.41,0,0,0,1.15.1,2.64,2.64,0,0,0,2.7-1.48,15,15,0,0,0,.8-4.92l.4-11.9Z"/><path d="M477,312.52v27.35H467v-7h-2.75l-4.45,7H447.82l5.9-8.55a9.55,9.55,0,0,1-4-3.35,8.73,8.73,0,0,1-1.37-4.9,9.09,9.09,0,0,1,3.8-7.75q3.8-2.8,10.4-2.8Zm-17,10.95a2.19,2.19,0,0,0,.72,1.83,3.45,3.45,0,0,0,2.18.58H467v-4.6h-4.15Q459.92,321.27,459.92,323.47Z"/><path d="M531.26,331v14.25H520.82v-5.4h-15.1v5.4H495.26V331h.8a3.38,3.38,0,0,0,3.35-2.28,19.56,19.56,0,0,0,1.1-6.58l.35-9.65h26.75V331Zm-21-3a6.68,6.68,0,0,1-1.27,3h7.4v-9.7h-5.65l-.05,1.7A36.51,36.51,0,0,1,510.24,328Z"/><path d="M540.49,338.55a14,14,0,0,1-5.68-5,14.11,14.11,0,0,1,0-14.65,13.87,13.87,0,0,1,5.68-5,19.58,19.58,0,0,1,16.4,0,13.7,13.7,0,0,1,5.65,5,14.26,14.26,0,0,1,0,14.65,13.86,13.86,0,0,1-5.65,5,19.33,19.33,0,0,1-16.4,0Zm11.38-8.4a5.83,5.83,0,0,0,1.25-4,5.74,5.74,0,0,0-1.25-4,4.36,4.36,0,0,0-6.4,0,5.73,5.73,0,0,0-1.25,4,5.83,5.83,0,0,0,1.25,4,4.31,4.31,0,0,0,6.4,0Z"/><path d="M581.51,330.77h-2.15v9.1h-11.3V312.52h11.3v9.6h2.45l6-9.6h11.9l-8.8,13.1,9.35,14.25H587Z"/><path d="M632.16,312.52l-11.25,27.9q-2.15,5.35-5.35,7.5a13.76,13.76,0,0,1-7.85,2.15,16.55,16.55,0,0,1-4.62-.67,10.37,10.37,0,0,1-3.68-1.78l3.75-7.75a7.39,7.39,0,0,0,1.93,1,5.94,5.94,0,0,0,2.07.4,3.5,3.5,0,0,0,2.8-1.1l-11.5-27.7h11.6l5.65,14.65,5.75-14.65Z"/><path d="M661,339.87l0-12.25-5.8,10.1h-4.75l-5.6-10.35v12.5H634.66V312.52h12l6.5,12.75,7.35-12.75h10.6l.1,27.35Z"/><path d="M705,328.82H686a4.6,4.6,0,0,0,2,2.38,6.8,6.8,0,0,0,3.5.83,8.84,8.84,0,0,0,3-.45,10.62,10.62,0,0,0,2.68-1.55l5.9,5.95q-4,4.4-12,4.4a19.64,19.64,0,0,1-8.7-1.83,13.8,13.8,0,0,1-5.8-5.08,14.14,14.14,0,0,1,0-14.62,13.85,13.85,0,0,1,5.55-5,18.28,18.28,0,0,1,15.5-.15,13,13,0,0,1,5.45,4.85,14,14,0,0,1,2,7.65Q705.16,326.42,705,328.82Zm-17.7-8.15a4.51,4.51,0,0,0-1.5,2.7h8.8a4.6,4.6,0,0,0-1.5-2.67,4.33,4.33,0,0,0-2.9-1A4.4,4.4,0,0,0,687.31,320.67Z"/><path d="M709.21,312.52h11.25v9.6h7.7v-9.6h11.25v27.35H728.16V331h-7.7v8.9H709.21Z"/><path d="M770.61,321.32h-8.35v18.55H751V321.32h-8.35v-8.8h27.95Z"/><path d="M796.51,315.25q3.8,3.23,3.8,9.92v14.7h-10.5v-3.6q-2,4.1-7.75,4.1a12.36,12.36,0,0,1-5.52-1.12,7.92,7.92,0,0,1-4.62-7.37,7,7,0,0,1,3.1-6.15q3.1-2.1,9.4-2.1H789q-.55-3.2-5.15-3.2a12.91,12.91,0,0,0-3.75.58,10.54,10.54,0,0,0-3.25,1.58l-3.6-7.45a19.89,19.89,0,0,1,5.67-2.28,27.44,27.44,0,0,1,6.63-.82Q792.71,312,796.51,315.25Zm-8.9,17.67a3.76,3.76,0,0,0,1.4-2v-1.9h-2.8q-3.45,0-3.45,2.3a2,2,0,0,0,.73,1.58,2.92,2.92,0,0,0,2,.63A3.72,3.72,0,0,0,787.61,332.92Z"/><path d="M834.41,312.52v27.35h-11.3V321.32H818l-.15,3.55a40.93,40.93,0,0,1-1.1,8.7,10.22,10.22,0,0,1-3,5.22,8.29,8.29,0,0,1-5.68,1.83,22,22,0,0,1-5.25-.75l.45-9.15a10.41,10.41,0,0,0,1.15.1,2.64,2.64,0,0,0,2.7-1.48,15,15,0,0,0,.8-4.92l.4-11.9Z"/><path d="M865.46,323.17a8.27,8.27,0,0,1,3,6.8,8.67,8.67,0,0,1-3.43,7.25q-3.42,2.65-9.37,2.65h-15.9V312.52H851v8.25H857Q862.51,320.77,865.46,323.17Zm-8.55,6.6a2.14,2.14,0,0,0-2.45-2.4H851v4.9h3.5A2.19,2.19,0,0,0,856.91,329.77Z"/><path d="M871.66,312.52h11.25v9.6h7.7v-9.6h11.25v27.35H890.61V331h-7.7v8.9H871.66Z"/><path d="M913.09,338.55a14,14,0,0,1-5.68-5,14.11,14.11,0,0,1,0-14.65,13.87,13.87,0,0,1,5.68-5,19.58,19.58,0,0,1,16.4,0,13.7,13.7,0,0,1,5.65,5,14.27,14.27,0,0,1,0,14.65,13.86,13.86,0,0,1-5.65,5,19.33,19.33,0,0,1-16.4,0Zm11.38-8.4a5.84,5.84,0,0,0,1.25-4,5.74,5.74,0,0,0-1.25-4,4.36,4.36,0,0,0-6.4,0,5.73,5.73,0,0,0-1.25,4,5.83,5.83,0,0,0,1.25,4,4.31,4.31,0,0,0,6.4,0Z"/><path d="M964.56,321.32H951.91v18.55H940.66V312.52h23.9Z"/><path d="M972.74,338.55a14,14,0,0,1-5.68-5,14.11,14.11,0,0,1,0-14.65,13.87,13.87,0,0,1,5.68-5,19.58,19.58,0,0,1,16.4,0,13.7,13.7,0,0,1,5.65,5,14.27,14.27,0,0,1,0,14.65,13.86,13.86,0,0,1-5.65,5,19.33,19.33,0,0,1-16.4,0Zm11.38-8.4a5.84,5.84,0,0,0,1.25-4,5.74,5.74,0,0,0-1.25-4,4.36,4.36,0,0,0-6.4,0,5.73,5.73,0,0,0-1.25,4,5.83,5.83,0,0,0,1.25,4,4.31,4.31,0,0,0,6.4,0Z"/><path d="M404.72,403.87h-8.35v18.55H385.12V403.87h-8.35v-8.8h27.95Z"/><path d="M435.57,411.37h-19a4.6,4.6,0,0,0,2,2.38,6.8,6.8,0,0,0,3.5.83,8.84,8.84,0,0,0,3-.45,10.62,10.62,0,0,0,2.68-1.55l5.9,5.95q-4,4.4-12,4.4a19.64,19.64,0,0,1-8.7-1.83,13.8,13.8,0,0,1-5.8-5.08,14.14,14.14,0,0,1,0-14.62,13.85,13.85,0,0,1,5.55-5,18.28,18.28,0,0,1,15.5-.15,13,13,0,0,1,5.45,4.85,14,14,0,0,1,2,7.65Q435.72,409,435.57,411.37Zm-17.7-8.15a4.51,4.51,0,0,0-1.5,2.7h8.8a4.6,4.6,0,0,0-1.5-2.67,4.33,4.33,0,0,0-2.9-1A4.4,4.4,0,0,0,417.87,403.22Z"/><path d="M461.67,397.79q3.8,3.23,3.8,9.92v14.7H455v-3.6q-2,4.1-7.75,4.1a12.36,12.36,0,0,1-5.52-1.12,7.92,7.92,0,0,1-4.62-7.37,7,7,0,0,1,3.1-6.15q3.1-2.1,9.4-2.1h4.55q-.55-3.2-5.15-3.2a12.91,12.91,0,0,0-3.75.58,10.54,10.54,0,0,0-3.25,1.58l-3.6-7.45a19.89,19.89,0,0,1,5.67-2.28,27.44,27.44,0,0,1,6.63-.82Q457.87,394.57,461.67,397.79Zm-8.9,17.67a3.76,3.76,0,0,0,1.4-2v-1.9h-2.8q-3.45,0-3.45,2.3a2,2,0,0,0,.73,1.58,2.92,2.92,0,0,0,2,.63A3.72,3.72,0,0,0,452.77,415.47Z"/><path d="M496,403.87h-8.35v18.55H476.37V403.87H468v-8.8H496Z"/><path d="M524.1,396.29a12.45,12.45,0,0,1,4.8,5,16.68,16.68,0,0,1,0,15,12.49,12.49,0,0,1-4.8,5,13.15,13.15,0,0,1-6.62,1.72q-4.55,0-6.95-2.35v11.55h-11.3v-37H510v2.25q2.45-2.75,7.5-2.75A13.14,13.14,0,0,1,524.1,396.29ZM518,412.72a5.73,5.73,0,0,0,1.25-4,5.83,5.83,0,0,0-1.25-4,4.31,4.31,0,0,0-6.4,0,5.83,5.83,0,0,0-1.25,4,5.73,5.73,0,0,0,1.25,4,4.36,4.36,0,0,0,6.4,0Z"/><path d="M556.27,397.79q3.8,3.23,3.8,9.92v14.7h-10.5v-3.6q-2,4.1-7.75,4.1a12.36,12.36,0,0,1-5.52-1.12,7.92,7.92,0,0,1-4.62-7.37,7,7,0,0,1,3.1-6.15q3.1-2.1,9.4-2.1h4.55q-.55-3.2-5.15-3.2a12.91,12.91,0,0,0-3.75.58,10.54,10.54,0,0,0-3.25,1.58l-3.6-7.45a19.89,19.89,0,0,1,5.67-2.28,27.44,27.44,0,0,1,6.63-.82Q552.47,394.57,556.27,397.79Zm-8.9,17.67a3.76,3.76,0,0,0,1.4-2v-1.9H546q-3.45,0-3.45,2.3a2,2,0,0,0,.73,1.58,2.92,2.92,0,0,0,2,.63A3.72,3.72,0,0,0,547.37,415.47Z"/><path d="M574.37,411.76a6.11,6.11,0,0,1,1.85,4.65,10,10,0,0,1-.35,2.6,26.9,26.9,0,0,1-1.6,4l-3.5,7.45h-7l2.5-8.45a5.52,5.52,0,0,1-2.4-2.17,6.46,6.46,0,0,1-.85-3.37,6.1,6.1,0,0,1,1.85-4.65,7.32,7.32,0,0,1,9.5,0Z"/><path d="M623.32,413.32h-2.15v9.1h-11.3V395.07h11.3v9.6h2.45l6-9.6h11.9l-8.8,13.1,9.35,14.25h-13.3Z"/><path d="M644.57,395.07h11.25v12.35l9.45-12.35h10.4v27.35H664.42V410l-9.4,12.4H644.57Z"/><path d="M681,395.07h11.25v9.6h7.7v-9.6h11.25v27.35H699.92v-8.9h-7.7v8.9H681Z"/><path d="M722.39,421.09a14,14,0,0,1-5.68-5,14.11,14.11,0,0,1,0-14.65,13.87,13.87,0,0,1,5.68-5,19.58,19.58,0,0,1,16.4,0,13.7,13.7,0,0,1,5.65,5,14.26,14.26,0,0,1,0,14.65,13.86,13.86,0,0,1-5.65,5,19.33,19.33,0,0,1-16.4,0Zm11.38-8.4a5.83,5.83,0,0,0,1.25-4,5.74,5.74,0,0,0-1.25-4,4.36,4.36,0,0,0-6.4,0,5.73,5.73,0,0,0-1.25,4,5.83,5.83,0,0,0,1.25,4,4.31,4.31,0,0,0,6.4,0Z"/><path d="M381,476.37h11.25v12.35l9.45-12.35h10.4v27.35H400.81v-12.4l-9.4,12.4H381Z"/><path d="M469.54,500q-4.28,3.65-12.43,4.35v9h-9.8v-9q-8.15-.7-12.43-4.33t-4.27-10.12q0-6.35,4.23-9.87t12.48-4.12v-9.3h9.8v9.3q8.15.7,12.43,4.2t4.27,9.8Q473.81,496.37,469.54,500Zm-26.87-5.58a7.56,7.56,0,0,0,4.65,2V483.82a7.76,7.76,0,0,0-4.65,1.88,5.93,5.93,0,0,0-1.35,4.23A6.64,6.64,0,0,0,442.66,494.44Zm19.13,0a6.56,6.56,0,0,0,1.38-4.52,5.87,5.87,0,0,0-1.37-4.23,7.89,7.89,0,0,0-4.68-1.87v12.65A7.69,7.69,0,0,0,461.79,494.44Z"/><path d="M483.29,502.39a14,14,0,0,1-5.68-5,14.11,14.11,0,0,1,0-14.65,13.87,13.87,0,0,1,5.68-5,19.58,19.58,0,0,1,16.4,0,13.7,13.7,0,0,1,5.65,5,14.26,14.26,0,0,1,0,14.65,13.86,13.86,0,0,1-5.65,5,19.33,19.33,0,0,1-16.4,0Zm11.38-8.4a5.83,5.83,0,0,0,1.25-4,5.74,5.74,0,0,0-1.25-4,4.36,4.36,0,0,0-6.4,0,5.73,5.73,0,0,0-1.25,4,5.83,5.83,0,0,0,1.25,4,4.31,4.31,0,0,0,6.4,0Z"/><path d="M535.76,485.17h-8.35v18.55H516.16V485.17h-8.35v-8.8h27.95Z"/><path d="M543.94,502.39a14,14,0,0,1-5.68-5,14.11,14.11,0,0,1,0-14.65,13.87,13.87,0,0,1,5.68-5,19.58,19.58,0,0,1,16.4,0,13.7,13.7,0,0,1,5.65,5,14.26,14.26,0,0,1,0,14.65,13.86,13.86,0,0,1-5.65,5,19.33,19.33,0,0,1-16.4,0Zm11.38-8.4a5.83,5.83,0,0,0,1.25-4,5.74,5.74,0,0,0-1.25-4,4.36,4.36,0,0,0-6.4,0,5.73,5.73,0,0,0-1.25,4,5.83,5.83,0,0,0,1.25,4,4.31,4.31,0,0,0,6.4,0Z"/><path d="M595.41,485.17H582.76v18.55H571.51V476.37h23.9Z"/><path d="M623.54,477.59a12.45,12.45,0,0,1,4.8,5,16.68,16.68,0,0,1,0,15,12.49,12.49,0,0,1-4.8,5,13.15,13.15,0,0,1-6.62,1.72q-4.55,0-6.95-2.35v11.55h-11.3v-37h10.75v2.25q2.45-2.75,7.5-2.75A13.14,13.14,0,0,1,623.54,477.59ZM617.41,494a5.73,5.73,0,0,0,1.25-4,5.83,5.83,0,0,0-1.25-4,4.31,4.31,0,0,0-6.4,0,5.83,5.83,0,0,0-1.25,4,5.73,5.73,0,0,0,1.25,4,4.36,4.36,0,0,0,6.4,0Z"/><path d="M655.71,479.09q3.8,3.23,3.8,9.92v14.7H649v-3.6q-2,4.1-7.75,4.1a12.36,12.36,0,0,1-5.52-1.12,7.92,7.92,0,0,1-4.62-7.37,7,7,0,0,1,3.1-6.15q3.1-2.1,9.4-2.1h4.55q-.55-3.2-5.15-3.2a12.91,12.91,0,0,0-3.75.58,10.54,10.54,0,0,0-3.25,1.58l-3.6-7.45a19.89,19.89,0,0,1,5.67-2.28,27.44,27.44,0,0,1,6.63-.82Q651.91,475.87,655.71,479.09Zm-8.9,17.67a3.76,3.76,0,0,0,1.4-2v-1.9h-2.8q-3.45,0-3.45,2.3a2,2,0,0,0,.73,1.58,2.92,2.92,0,0,0,2,.63A3.72,3.72,0,0,0,646.81,496.77Z"/><path d="M701.29,500q-4.28,3.65-12.43,4.35v9h-9.8v-9q-8.15-.7-12.43-4.33t-4.27-10.12q0-6.35,4.23-9.87t12.48-4.12v-9.3h9.8v9.3q8.15.7,12.43,4.2t4.27,9.8Q705.56,496.37,701.29,500Zm-26.87-5.58a7.56,7.56,0,0,0,4.65,2V483.82a7.76,7.76,0,0,0-4.65,1.88,5.93,5.93,0,0,0-1.35,4.23A6.64,6.64,0,0,0,674.41,494.44Zm19.13,0a6.56,6.56,0,0,0,1.38-4.52,5.87,5.87,0,0,0-1.37-4.23,7.89,7.89,0,0,0-4.68-1.87v12.65A7.69,7.69,0,0,0,693.54,494.44Z"/><path d="M709.11,476.37h11.25v12.35l9.45-12.35h10.4v27.35H729v-12.4l-9.4,12.4H709.11Z"/><path d="M745.51,476.37h11.25v12.35l9.45-12.35h10.4v27.35H765.36v-12.4l-9.4,12.4H745.51Z"/><rect class="cls-5" x="-135.86" y="-277.48" width="1575.86" height="277.48"/><line class="cls-3" x1="360.42" y1="108.62" x2="360.42" y2="518.74"/><line class="cls-3" x1="364.28" y1="355.8" x2="1019.17" y2="355.8"/><line class="cls-3" x1="361.42" y1="273.35" x2="855.14" y2="273.35"/><line class="cls-3" x1="360.94" y1="218.45" x2="849.87" y2="218.45"/><line class="cls-3" x1="348.56" y1="136.08" x2="689.33" y2="136.08"/><line class="cls-3" x1="360.92" y1="190.99" x2="689.97" y2="190.99"/><line class="cls-3" x1="360.6" y1="383.25" x2="772.79" y2="383.25"/><line class="cls-3" x1="356.93" y1="519.25" x2="800.23" y2="519.25"/><line class="cls-3" x1="360.94" y1="300.81" x2="1018.67" y2="300.81"/></g></svg>
